<svg width="1024" height="1024" viewBox="0 0 1024 1024" fill="none" xmlns="http://www.w3.org/2000/svg">
<path d="M327.366 753.679C271.782 758.311 151.381 792.393 141.248 778.642C133.197 767.714 227.265 585.419 237.141 560.421C249.486 529.174 256.429 398.398 269.931 353.263C283.433 308.129 325.482 253.735 342.07 240.233C358.658 226.731 399.549 222.102 404.179 220.173C408.808 218.245 417.681 200.499 427.711 199.728C437.741 198.956 448.542 199.342 465.516 199.342C482.49 199.342 492.905 214.001 499.078 215.93C505.25 217.859 524.539 216.701 540.355 219.402C556.172 222.102 582.404 234.833 582.018 231.361C581.632 227.889 569.288 207.057 558.486 191.627C547.685 176.196 562.73 175.81 574.688 180.439C586.647 185.069 612.108 229.432 607.865 232.904C603.621 236.376 607.479 250.263 614.037 260.679C620.595 271.095 636.411 296.941 644.127 296.17C651.842 295.398 653.771 285.754 652.228 280.353C650.685 274.952 657.629 266.08 664.187 267.623C670.745 269.166 708.164 325.488 713.565 336.676C718.966 347.863 733.625 389.14 728.996 392.612C724.367 396.084 714.722 384.125 708.55 382.196C702.378 380.267 698.134 386.054 699.677 391.84C701.221 397.627 749.827 448.934 757.543 455.492C765.258 462.05 781.846 480.567 775.288 484.811C768.73 489.054 723.209 495.612 706.236 499.47C689.262 503.328 616.352 514.515 608.636 512.2C600.921 509.886 595.52 506.028 588.19 499.47C580.861 492.912 564.659 502.17 565.816 510.657C566.973 519.144 552.79 698.095 549.702 719.711C546.614 741.327 543.525 778.383 517.277 769.119C491.029 759.855 382.95 749.047 327.366 753.679Z" fill="#202020" style="fill:#202020;fill:color(display-p3 0.1260 0.1260 0.1260);fill-opacity:1;"/>
</svg>
